<svg xmlns="http://www.w3.org/2000/svg" xmlns:xlink="http://www.w3.org/1999/xlink" version="1.1" x="0px" y="0px"
  viewBox="0 0 100 125" enable-background="new 0 0 100 100" xml:space="preserve">
  <path fill="#000000"
    d="M41.234,51.589c-0.12-0.513-0.324-0.994-0.607-1.42c-0.224,0.969-1.088,1.693-2.125,1.693  c-1.207,0-2.186-0.979-2.186-2.186c0-0.56,0.217-1.066,0.563-1.453c-2.364,0.058-4.265,1.983-4.265,4.361  c0,2.414,1.957,4.372,4.372,4.372c1.938,0,3.563-1.27,4.136-3.016c-0.005,0-0.01,0.002-0.016,0.002  c-0.652-0.053-1.138-0.624-1.085-1.276C40.073,52.037,40.61,51.574,41.234,51.589z" />
  <path fill="#000000"
    d="M88.579,55.745c0.084-0.939,0.122-1.886,0.102-2.841c-0.141-6.548-2.835-12.663-7.399-16.864  c-0.669-2.387-1.724-4.672-3.192-6.73c-3.102-4.349-8.161-6.712-13.703-6.477c-0.353-1.347-0.952-2.708-1.96-3.764  c-1.126-1.181-2.626-1.813-4.337-1.829c-0.018,0-0.034,0-0.052,0c-2.55,0-4.591,1.732-6.175,4.01  c-1.564-1.017-3.3-1.783-5.021-2.182c-3.832-0.885-7.725,0.33-10.143,2.908L19.387,7.263c-0.715-0.612-1.729-0.632-2.467-0.048  c-0.738,0.584-0.952,1.577-0.516,2.418l12.544,23.975c-0.725,0.143-1.477,0.152-2.207,0.018c-1.011-0.183-1.994-0.639-2.859-1.331  c-0.077-0.065-0.218-0.185-0.422-0.288c-0.398-0.203-0.866-0.217-1.276-0.039c-0.41,0.178-0.719,0.53-0.843,0.959  c-0.146,0.507-0.073,1.001-0.025,1.328l0.017,0.116c0.051,0.407,0.138,0.819,0.265,1.26c0.464,1.61,1.323,3.036,2.484,4.123  c0.302,0.283,0.617,0.542,0.94,0.782c-2.91,3.252-6.076,6.781-8.969,9.935l-0.864,0.936c-2.76,2.98-5.614,6.062-7.089,10.084  C6.483,65.9,6.958,72.118,11.823,75.352c2.565,1.706,5.962,2.437,10.096,2.175c1.029-0.065,1.935-0.178,2.767-0.344  c0.007-0.001,0.014-0.003,0.02-0.005c0.007-0.002,0.015-0.004,0.022-0.005c0.019-0.004,0.039-0.008,0.058-0.014  c0.188-0.051,4.034-1.125,6.287-3.796c3.207,1.84,8.486,3.489,13.069,1.101c-0.98,3.869-2.404,9.866-3.455,15.888  c-0.143,0.816,0.403,1.593,1.22,1.735c0.087,0.015,0.174,0.023,0.26,0.023c0.715,0,1.349-0.514,1.476-1.243  c1.367-7.827,3.375-15.625,4.175-18.615c0.225-0.837-0.127-1.693-0.875-2.129c-0.752-0.438-1.674-0.323-2.295,0.289  c-5.266,5.179-12.803-0.089-13.119-0.315c-0.354-0.255-0.801-0.341-1.228-0.24c-0.424,0.103-0.783,0.386-0.982,0.774  c-0.674,1.317-2.189,2.299-3.492,2.922c-0.134-2.852-0.457-5.305-1-7.582c-0.642-2.684-1.583-5.299-2.799-7.772  c-1.036-2.109-2.323-4.029-3.594-5.886c3.019-3.294,6.315-6.972,9.303-10.311c1.677,0.643,3.458,0.92,5.169,0.92  c1.766,0,3.454-0.279,4.866-0.708c2.372-0.72,4.651-2.092,6.592-3.967c0.962-0.929,1.845-1.951,2.624-3.037  c0.393-0.547,0.76-1.112,1.091-1.681c0.006-0.01,0.011-0.022,0.016-0.032c0.154,0.107,0.33,0.188,0.524,0.231  c0.808,0.182,1.611-0.326,1.792-1.134c0.087-0.386,0.207-0.861,0.356-1.392c0.012-0.039,0.025-0.077,0.033-0.116  c1.112-3.911,3.792-10.846,7.239-10.846c0.008,0,0.016,0,0.024,0c0.907,0.008,1.625,0.303,2.194,0.899  c1.301,1.363,1.68,4.095,1.601,6.198c-0.155,4.123-3.155,7.546-7.132,8.14c-0.819,0.122-1.385,0.885-1.262,1.705  c0.111,0.745,0.751,1.279,1.481,1.279c0.074,0,0.148-0.005,0.223-0.017c1.348-0.201,2.613-0.64,3.757-1.271  c4.507,2.302,7.019,8.24,7.101,12.89c0.077,4.393-1.943,8.65-5.273,11.111c-0.614,0.454-0.875,1.221-0.667,1.956  c0.208,0.731,0.832,1.244,1.589,1.306c0.333,0.027,0.665,0.041,0.997,0.041c1.832,0,3.65-0.41,5.386-1.101  c-0.139,1.789-0.974,3.551-2.314,4.721c-1.638,1.43-4.08,2.006-6.216,1.471c-0.697-0.174-1.423,0.082-1.856,0.652  c-0.431,0.568-0.481,1.334-0.128,1.954c0.852,1.495,2.12,2.666,3.691,3.497c-1.764,1.385-2.882,3.456-3.153,5.904  c-0.338,3.063,0.698,6.302,2.703,8.452c1.663,1.783,3.915,2.849,6.693,3.169c0.08,0.009,0.16,0.014,0.239,0.014  c0.685,0,1.325-0.338,1.711-0.917c0.427-0.64,0.458-1.455,0.083-2.126c-0.193-0.346-0.421-0.679-0.65-1.012  c-0.369-0.534-0.687-0.996-0.751-1.416c-0.17-1.119-0.022-1.954,0.454-2.552c1.223-1.536,4.68-1.797,7.458-2.007  c1.45-0.11,2.82-0.213,3.928-0.478c6.397-1.522,11.583-7.116,12.61-13.602C93.278,64.573,91.754,59.516,88.579,55.745z   M21.907,66.668c0.545,2.283,0.853,4.776,0.955,7.762c-0.358,0.042-0.731,0.077-1.133,0.103c-3.463,0.219-6.238-0.345-8.246-1.679  c-3.511-2.334-3.792-6.991-2.568-10.33c1.096-2.989,3.222-5.528,5.43-7.946c1.106,1.627,2.141,3.218,2.988,4.943  C20.452,61.797,21.318,64.201,21.907,66.668z M35.03,24.497c-0.032,0.073-0.071,0.142-0.101,0.216  c-0.409,1.003-0.662,2.021-0.907,3.004c-0.121,0.484-0.241,0.969-0.38,1.447c-0.309,1.058-0.854,2.009-1.576,2.751  c-0.132,0.136-0.275,0.259-0.419,0.381L21.59,13.073L35.03,24.497z M46.462,30.244c-0.299,0.408-0.507,0.839-0.691,1.22  c-0.092,0.189-0.182,0.379-0.285,0.556c-0.283,0.486-0.598,0.971-0.936,1.441c-0.674,0.94-1.438,1.824-2.271,2.628  c-1.6,1.546-3.46,2.672-5.378,3.254c-3.332,1.014-7.954,0.854-10.768-1.779c-0.385-0.361-0.722-0.782-1-1.25  c0.354,0.111,0.712,0.199,1.074,0.265c1.439,0.262,2.933,0.165,4.322-0.281c1.39-0.446,2.666-1.238,3.689-2.29  c1.062-1.092,1.859-2.476,2.305-4.002c0.151-0.517,0.281-1.04,0.412-1.562c0.23-0.922,0.447-1.793,0.775-2.599  c1.352-3.324,5.362-4.569,8.457-3.852c1.428,0.331,2.873,0.984,4.175,1.849c-0.939,1.871-1.634,3.808-2.107,5.335  C47.535,29.288,46.897,29.648,46.462,30.244z M69.025,50.01c-0.09-5.123-2.737-11.596-7.525-14.799  c1.984-2.006,3.242-4.742,3.355-7.761c0.016-0.412,0.02-0.975-0.016-1.625c4.397-0.086,8.366,1.804,10.807,5.227  c4.737,6.642,4.655,15.982-0.199,22.714c-2.296,3.185-6.231,6.44-10.358,7.416C67.637,58.163,69.097,54.13,69.025,50.01z   M67.716,70.356c2.387-2.084,3.618-5.332,3.295-8.471c2.759-1.685,5.164-3.998,6.87-6.363c2.955-4.098,4.357-9.037,4.232-13.916  c2.202,3.253,3.479,7.198,3.568,11.363c0.131,6.113-2.206,11.937-6.413,15.978c-1.243,1.194-2.619,2.211-4.089,3.025  c-2.301,1.274-4.738,2.001-7.047,2.103c-1.295,0.058-3.957-0.019-6.028-1.347C64.164,72.536,66.158,71.717,67.716,70.356z   M89.597,68.63c-0.843,5.318-5.096,9.904-10.342,11.153c-0.877,0.208-2.131,0.304-3.459,0.404c-3.535,0.267-7.541,0.57-9.579,3.131  c-1.01,1.271-1.371,2.909-1.072,4.872c0.089,0.582,0.29,1.088,0.535,1.544c-1.073-0.384-1.966-0.965-2.701-1.753  c-1.404-1.505-2.156-3.891-1.915-6.077c0.194-1.755,1.002-3.202,2.277-4.075c0.525-0.359,1.123-0.665,1.761-0.933  c0.758,0.115,1.54,0.193,2.367,0.193c0.262,0,0.527-0.006,0.794-0.018c2.77-0.122,5.664-0.978,8.368-2.475  c1.698-0.939,3.284-2.112,4.715-3.486c3.149-3.025,5.375-6.916,6.5-11.191C89.389,62.636,90.05,65.772,89.597,68.63z" />
</svg>